<svg width="145" height="26" viewBox="0 0 145 26" fill="none" xmlns="http://www.w3.org/2000/svg">
<path d="M16.043 15.119C16.043 16.4017 15.5143 17.4547 14.457 18.278C13.4083 19.0927 11.8093 19.5 9.66 19.5H1.041C0.703 19.5 0.447333 19.422 0.274 19.266C0.100667 19.11 0.014 18.889 0.014 18.603C0.014 18.1523 0.243667 17.8273 0.703 17.628L1.249 17.446C1.50033 17.3507 1.691 17.225 1.821 17.069C1.951 16.913 2.016 16.6877 2.016 16.393V4.407C2.016 4.10367 1.951 3.874 1.821 3.718C1.69967 3.562 1.51767 3.44067 1.275 3.354L0.703 3.172C0.243667 2.97267 0.014 2.64767 0.014 2.197C0.014 1.911 0.100667 1.69 0.274 1.534C0.447333 1.378 0.703 1.3 1.041 1.3H7.736C9.27 1.3 10.583 1.52533 11.675 1.976C12.767 2.418 13.599 3.03767 14.171 3.835C14.7517 4.63233 15.042 5.564 15.042 6.63C15.042 7.488 14.8123 8.25933 14.353 8.944C13.8937 9.62 13.196 10.153 12.26 10.543C11.3327 10.933 10.167 11.128 8.763 11.128L9.491 10.621C10.8603 10.621 12.0347 10.8117 13.014 11.193C13.9933 11.5743 14.743 12.103 15.263 12.779C15.783 13.455 16.043 14.235 16.043 15.119ZM8.204 11.856H4.499V10.218H7.723C8.503 10.218 9.16167 10.088 9.699 9.828C10.245 9.55933 10.661 9.16933 10.947 8.658C11.233 8.138 11.376 7.50533 11.376 6.76C11.376 6.006 11.2157 5.356 10.895 4.81C10.583 4.25533 10.1063 3.82633 9.465 3.523C8.83233 3.21967 8.035 3.068 7.073 3.068H5.877V16.107C5.877 16.6443 6.02433 17.0473 6.319 17.316C6.61367 17.5847 7.047 17.719 7.619 17.719H8.841C9.57767 17.719 10.193 17.6107 10.687 17.394C11.1897 17.1687 11.5667 16.848 11.818 16.432C12.0693 16.016 12.195 15.5263 12.195 14.963C12.195 14.027 11.857 13.2773 11.181 12.714C10.505 12.142 9.51267 11.856 8.204 11.856ZM23.9789 17.784V17.394L23.6799 17.238V10.465C23.6799 9.91033 23.5282 9.48133 23.2249 9.178C22.9302 8.87467 22.5229 8.723 22.0029 8.723C21.5435 8.723 21.1795 8.81833 20.9109 9.009C20.6509 9.19967 20.5209 9.44667 20.5209 9.75V10.478C20.5209 10.998 20.3605 11.3967 20.0399 11.674C19.7192 11.9513 19.2599 12.09 18.6619 12.09C18.1245 12.09 17.7215 11.9643 17.4529 11.713C17.1929 11.453 17.0629 11.1063 17.0629 10.673C17.0629 10.1183 17.2795 9.58533 17.7129 9.074C18.1549 8.56267 18.8049 8.14667 19.6629 7.826C20.5209 7.49667 21.5782 7.332 22.8349 7.332C24.2735 7.332 25.3482 7.644 26.0589 8.268C26.7695 8.892 27.1249 9.74567 27.1249 10.829V16.952C27.1249 17.1253 27.1682 17.2727 27.2549 17.394C27.3415 17.5067 27.4759 17.563 27.6579 17.563C27.7705 17.563 27.8615 17.5457 27.9309 17.511C28.0089 17.4763 28.0739 17.4287 28.1259 17.368C28.1692 17.3247 28.2169 17.29 28.2689 17.264C28.3209 17.2293 28.3815 17.212 28.4509 17.212C28.6069 17.212 28.7282 17.2683 28.8149 17.381C28.9015 17.4937 28.9449 17.641 28.9449 17.823C28.9449 18.1437 28.8409 18.4557 28.6329 18.759C28.4335 19.0623 28.1475 19.3093 27.7749 19.5C27.4109 19.6993 26.9732 19.799 26.4619 19.799C25.7425 19.799 25.1489 19.617 24.6809 19.253C24.2129 18.8803 23.9789 18.3907 23.9789 17.784ZM16.5559 16.809C16.5559 15.7083 17.0325 14.833 17.9859 14.183C18.9392 13.5243 20.2219 13.195 21.8339 13.195C22.3019 13.195 22.7525 13.2297 23.1859 13.299C23.6192 13.3683 23.9832 13.4637 24.2779 13.585L23.9529 14.755C23.6842 14.6337 23.4025 14.5427 23.1079 14.482C22.8219 14.4127 22.5099 14.378 22.1719 14.378C21.5305 14.378 21.0192 14.5383 20.6379 14.859C20.2565 15.171 20.0659 15.6043 20.0659 16.159C20.0659 16.6963 20.2262 17.108 20.5469 17.394C20.8762 17.6713 21.2965 17.81 21.8079 17.81C22.2759 17.81 22.7135 17.706 23.1209 17.498C23.5282 17.2813 23.8705 16.991 24.1479 16.627L24.4599 17.719C24.0092 18.3777 23.3982 18.889 22.6269 19.253C21.8555 19.617 21.0279 19.799 20.1439 19.799C19.0519 19.799 18.1809 19.526 17.5309 18.98C16.8809 18.434 16.5559 17.7103 16.5559 16.809ZM29.7923 19.5C29.5323 19.5 29.3243 19.435 29.1683 19.305C29.021 19.1663 28.9473 18.9757 28.9473 18.733C28.9473 18.5423 28.9906 18.3863 29.0773 18.265C29.1726 18.1437 29.307 18.031 29.4803 17.927L29.8443 17.81C30.009 17.7407 30.1303 17.6367 30.2083 17.498C30.2863 17.3507 30.3253 17.1037 30.3253 16.757V3.809C30.3253 3.51433 30.2863 3.30633 30.2083 3.185C30.1303 3.055 30.009 2.964 29.8443 2.912L29.2853 2.86C29.112 2.782 28.9776 2.691 28.8823 2.587C28.7956 2.47433 28.7523 2.33133 28.7523 2.158C28.7523 1.96733 28.813 1.807 28.9343 1.677C29.0556 1.53833 29.2506 1.417 29.5193 1.313L31.5993 0.545999C31.92 0.424665 32.1843 0.333665 32.3923 0.272999C32.609 0.212332 32.8126 0.181999 33.0033 0.181999C33.2546 0.181999 33.4496 0.264332 33.5883 0.428998C33.727 0.584998 33.7963 0.797332 33.7963 1.066V16.757C33.7963 17.1297 33.831 17.394 33.9003 17.55C33.9783 17.706 34.0996 17.8187 34.2643 17.888L34.6413 18.031C34.9446 18.1957 35.0963 18.4297 35.0963 18.733C35.0963 19.2443 34.8363 19.5 34.3163 19.5H29.7923ZM32.6653 13.884L37.4883 9.945C37.6616 9.79767 37.744 9.66333 37.7353 9.542C37.7353 9.412 37.64 9.308 37.4493 9.23L37.0333 9.087C36.86 9.00033 36.7343 8.90067 36.6563 8.788C36.587 8.66667 36.5523 8.528 36.5523 8.372C36.5523 8.12933 36.6303 7.93867 36.7863 7.8C36.9423 7.66133 37.159 7.592 37.4363 7.592H41.5963C41.865 7.592 42.073 7.66133 42.2203 7.8C42.3763 7.93 42.4543 8.11633 42.4543 8.359C42.4543 8.57567 42.3763 8.775 42.2203 8.957C42.073 9.13033 41.7566 9.26033 41.2713 9.347C40.9506 9.40767 40.6646 9.49867 40.4133 9.62C40.1706 9.74133 39.837 9.97533 39.4123 10.322L33.1463 15.405L32.6653 13.884ZM37.0463 10.972L41.2713 16.9C41.4706 17.1687 41.6396 17.368 41.7783 17.498C41.917 17.6193 42.0816 17.732 42.2723 17.836C42.5236 17.992 42.7056 18.1437 42.8183 18.291C42.9396 18.4297 43.0003 18.59 43.0003 18.772C43.0003 19.006 42.9266 19.188 42.7793 19.318C42.632 19.4393 42.4196 19.5 42.1423 19.5H37.5013C37.2673 19.5 37.0766 19.435 36.9293 19.305C36.7906 19.1663 36.7213 18.9757 36.7213 18.733C36.7213 18.5857 36.7516 18.46 36.8123 18.356C36.8816 18.252 36.9986 18.1567 37.1633 18.07L37.5403 17.927C37.809 17.8143 37.9173 17.68 37.8653 17.524C37.822 17.3593 37.6746 17.0993 37.4233 16.744L34.6283 12.87L37.0463 10.972ZM47.7266 8.255V16.757C47.7266 17.1037 47.7656 17.3507 47.8436 17.498C47.9303 17.6367 48.0516 17.7407 48.2076 17.81L48.5716 17.927C48.7449 18.0223 48.8749 18.135 48.9616 18.265C49.0569 18.3863 49.1046 18.5423 49.1046 18.733C49.1046 18.9757 49.0309 19.1663 48.8836 19.305C48.7363 19.435 48.5283 19.5 48.2596 19.5H43.7226C43.4539 19.5 43.2416 19.435 43.0856 19.305C42.9383 19.1663 42.8646 18.9757 42.8646 18.733C42.8646 18.5423 42.9123 18.3863 43.0076 18.265C43.1029 18.135 43.2373 18.0223 43.4106 17.927L43.7746 17.81C43.9393 17.7407 44.0606 17.6367 44.1386 17.498C44.2166 17.3507 44.2556 17.1037 44.2556 16.757V11.011C44.2556 10.7077 44.2123 10.4953 44.1256 10.374C44.0476 10.2527 43.9263 10.166 43.7616 10.114L43.2026 10.049C43.0379 9.971 42.9079 9.88 42.8126 9.776C42.7259 9.66333 42.6826 9.52467 42.6826 9.36C42.6826 9.16933 42.7389 9.00467 42.8516 8.866C42.9729 8.72733 43.1723 8.61033 43.4496 8.515L45.5166 7.748C45.8459 7.618 46.1146 7.527 46.3226 7.475C46.5393 7.41433 46.7429 7.384 46.9336 7.384C47.1849 7.384 47.3799 7.46633 47.5186 7.631C47.6573 7.787 47.7266 7.995 47.7266 8.255ZM45.7506 5.525C45.0833 5.525 44.5459 5.34733 44.1386 4.992C43.7399 4.628 43.5406 4.15133 43.5406 3.562C43.5406 2.97267 43.7399 2.50033 44.1386 2.145C44.5459 1.78967 45.0833 1.612 45.7506 1.612C46.4266 1.612 46.9639 1.78967 47.3626 2.145C47.7699 2.50033 47.9736 2.97267 47.9736 3.562C47.9736 4.15133 47.7699 4.628 47.3626 4.992C46.9639 5.34733 46.4266 5.525 45.7506 5.525ZM54.2676 8.255V16.757C54.2676 17.1297 54.3023 17.394 54.3716 17.55C54.4409 17.706 54.5623 17.8187 54.7356 17.888L55.1126 18.031C55.4073 18.1957 55.5546 18.4297 55.5546 18.733C55.5546 19.2443 55.2946 19.5 54.7746 19.5H50.2636C49.9949 19.5 49.7826 19.435 49.6266 19.305C49.4793 19.1663 49.4056 18.9757 49.4056 18.733C49.4056 18.5423 49.4489 18.3863 49.5356 18.265C49.6309 18.1437 49.7653 18.031 49.9386 17.927L50.3156 17.81C50.4803 17.7407 50.6016 17.6367 50.6796 17.498C50.7576 17.3507 50.7966 17.1037 50.7966 16.757V11.011C50.7966 10.7077 50.7533 10.4953 50.6666 10.374C50.5886 10.2527 50.4673 10.166 50.3026 10.114L49.7436 10.049C49.5703 9.971 49.4403 9.88 49.3536 9.776C49.2669 9.66333 49.2236 9.52467 49.2236 9.36C49.2236 9.16933 49.2799 9.00467 49.3926 8.866C49.5139 8.72733 49.7133 8.61033 49.9906 8.515L52.0576 7.748C52.3869 7.618 52.6556 7.527 52.8636 7.475C53.0716 7.41433 53.2753 7.384 53.4746 7.384C53.7259 7.384 53.9209 7.46633 54.0596 7.631C54.1983 7.787 54.2676 7.995 54.2676 8.255ZM53.8646 11.401L53.1496 10.569L53.7346 9.984C54.7053 9.03933 55.5936 8.359 56.3996 7.943C57.2056 7.527 57.9726 7.319 58.7006 7.319C59.7579 7.319 60.6029 7.657 61.2356 8.333C61.8683 9.00033 62.1846 9.90167 62.1846 11.037V16.757C62.1846 17.1037 62.2236 17.3507 62.3016 17.498C62.3796 17.6367 62.5009 17.7407 62.6656 17.81L63.0296 17.927C63.2029 18.031 63.3329 18.1437 63.4196 18.265C63.5149 18.3863 63.5626 18.5423 63.5626 18.733C63.5626 18.9757 63.4889 19.1663 63.3416 19.305C63.1943 19.435 62.9819 19.5 62.7046 19.5H58.1936C57.6736 19.5 57.4136 19.2443 57.4136 18.733C57.4136 18.4297 57.5653 18.1957 57.8686 18.031L58.2456 17.888C58.4189 17.8187 58.5403 17.706 58.6096 17.55C58.6789 17.394 58.7136 17.1297 58.7136 16.757V11.908C58.7136 11.232 58.5489 10.7163 58.2196 10.361C57.8903 9.997 57.4396 9.815 56.8676 9.815C56.4689 9.815 56.0573 9.906 55.6326 10.088C55.2079 10.2613 54.7789 10.5517 54.3456 10.959L53.8646 11.401ZM71.6957 18.343C70.7511 18.213 70.0317 18.0917 69.5377 17.979C69.0437 17.8663 68.7101 17.7493 68.5367 17.628C68.3634 17.5067 68.2767 17.3637 68.2767 17.199C68.2767 17.0603 68.3287 16.9347 68.4327 16.822C68.5367 16.7007 68.6971 16.5837 68.9137 16.471L68.6407 16.237C67.7741 16.2803 67.0851 16.4147 66.5737 16.64C66.0624 16.8653 65.6984 17.1383 65.4817 17.459C65.2651 17.7797 65.1567 18.1133 65.1567 18.46C65.1567 18.8673 65.2737 19.2357 65.5077 19.565C65.7504 19.8943 66.2011 20.1847 66.8597 20.436C67.5271 20.6873 68.4891 20.8997 69.7457 21.073C70.7251 21.1943 71.4834 21.3287 72.0207 21.476C72.5667 21.632 72.9437 21.8097 73.1517 22.009C73.3684 22.2083 73.4767 22.4467 73.4767 22.724C73.4767 23.01 73.3597 23.2657 73.1257 23.491C72.9004 23.7163 72.5364 23.8897 72.0337 24.011C71.5397 24.1323 70.8897 24.193 70.0837 24.193C68.6624 24.193 67.6831 24.024 67.1457 23.686C66.6171 23.348 66.3527 22.9277 66.3527 22.425C66.3527 22.0523 66.5001 21.71 66.7947 21.398C67.0894 21.086 67.5444 20.852 68.1597 20.696L67.7827 20.306C66.2747 20.4533 65.1914 20.7783 64.5327 21.281C63.8827 21.7923 63.5577 22.4163 63.5577 23.153C63.5577 23.699 63.7614 24.1757 64.1687 24.583C64.5761 24.9903 65.2087 25.3067 66.0667 25.532C66.9334 25.766 68.0514 25.883 69.4207 25.883C71.7781 25.883 73.5504 25.5103 74.7377 24.765C75.9337 24.0283 76.5317 23.062 76.5317 21.866C76.5317 21.19 76.3714 20.618 76.0507 20.15C75.7301 19.6907 75.2144 19.3137 74.5037 19.019C73.7931 18.7243 72.8571 18.499 71.6957 18.343ZM71.8127 8.593L72.8527 8.84C73.1127 8.33733 73.3381 7.97333 73.5287 7.748C73.7281 7.514 73.9447 7.397 74.1787 7.397C74.3607 7.397 74.5081 7.44467 74.6207 7.54C74.7421 7.63533 74.8591 7.748 74.9717 7.878C75.0844 7.99933 75.2187 8.112 75.3747 8.216C75.5307 8.31133 75.7387 8.359 75.9987 8.359C76.3887 8.359 76.6921 8.22033 76.9087 7.943C77.1341 7.657 77.2467 7.27567 77.2467 6.799C77.2467 6.279 77.0821 5.876 76.7527 5.59C76.4321 5.29533 76.0117 5.148 75.4917 5.148C74.8417 5.148 74.2437 5.356 73.6977 5.772C73.1517 6.17933 72.6794 6.812 72.2807 7.67L71.8127 8.593ZM75.4917 11.96C75.4917 11.102 75.2664 10.3263 74.8157 9.633C74.3737 8.931 73.7324 8.37633 72.8917 7.969C72.0597 7.553 71.0544 7.345 69.8757 7.345C68.6711 7.345 67.6181 7.54867 66.7167 7.956C65.8241 8.35467 65.1307 8.918 64.6367 9.646C64.1514 10.3653 63.9087 11.2147 63.9087 12.194C63.9087 13.078 64.1427 13.8623 64.6107 14.547C65.0874 15.2317 65.7634 15.769 66.6387 16.159C67.5227 16.549 68.5757 16.744 69.7977 16.744C70.9157 16.744 71.8994 16.5447 72.7487 16.146C73.6067 15.7387 74.2784 15.1797 74.7637 14.469C75.2491 13.7497 75.4917 12.9133 75.4917 11.96ZM69.3687 8.723C70.0881 8.70567 70.6817 9.01767 71.1497 9.659C71.6177 10.2917 71.8907 11.167 71.9687 12.285C72.0467 13.2297 71.9081 13.975 71.5527 14.521C71.1974 15.0583 70.6861 15.3357 70.0187 15.353C69.5594 15.3703 69.1391 15.2403 68.7577 14.963C68.3851 14.677 68.0817 14.261 67.8477 13.715C67.6224 13.169 67.4794 12.5103 67.4187 11.739C67.3754 11.1323 67.4274 10.608 67.5747 10.166C67.7221 9.724 67.9474 9.37733 68.2507 9.126C68.5627 8.87467 68.9354 8.74033 69.3687 8.723ZM82.8052 18.603C82.8052 18.8803 82.7186 19.1013 82.5452 19.266C82.3806 19.422 82.1249 19.5 81.7782 19.5H77.8912C77.5446 19.5 77.2846 19.422 77.1112 19.266C76.9466 19.1013 76.8642 18.8803 76.8642 18.603C76.8642 18.161 77.1156 17.823 77.6182 17.589L78.1252 17.446C78.3766 17.3507 78.5629 17.225 78.6842 17.069C78.8056 16.9043 78.8662 16.6573 78.8662 16.328V5.928C78.8662 5.512 78.8229 5.19133 78.7362 4.966C78.6582 4.74067 78.5239 4.524 78.3332 4.316L77.2932 3.094C77.1199 2.89467 76.9856 2.72567 76.8902 2.587C76.7949 2.43967 76.7472 2.26633 76.7472 2.067C76.7472 1.833 76.8252 1.64667 76.9812 1.508C77.1459 1.36933 77.3626 1.3 77.6312 1.3H80.1532C80.4739 1.3 80.7339 1.34333 80.9332 1.43C81.1412 1.508 81.3579 1.69433 81.5832 1.989L91.2422 14.729L90.7222 16.51V4.472C90.7222 4.14267 90.6616 3.9 90.5402 3.744C90.4276 3.588 90.2369 3.458 89.9682 3.354L89.4742 3.211C88.9629 2.96833 88.7072 2.63033 88.7072 2.197C88.7072 1.91967 88.7896 1.703 88.9542 1.547C89.1276 1.38233 89.3876 1.3 89.7342 1.3H93.6212C93.9679 1.3 94.2236 1.38233 94.3882 1.547C94.5616 1.703 94.6482 1.91967 94.6482 2.197C94.6482 2.639 94.3926 2.977 93.8812 3.211L93.3872 3.354C93.1272 3.458 92.9366 3.588 92.8152 3.744C92.7026 3.89133 92.6462 4.134 92.6462 4.472V15.314C92.6462 15.6433 92.6766 15.938 92.7372 16.198C92.8066 16.4493 92.9062 16.6833 93.0362 16.9L93.5302 17.654C93.6862 17.8967 93.7902 18.0873 93.8422 18.226C93.9029 18.356 93.9332 18.499 93.9332 18.655C93.9332 18.9063 93.8509 19.11 93.6862 19.266C93.5302 19.422 93.3136 19.5 93.0362 19.5H90.0722C89.5609 19.5 89.3052 19.2703 89.3052 18.811C89.3052 18.6117 89.2576 18.4297 89.1622 18.265C89.0756 18.1003 88.8892 17.823 88.6032 17.433L79.8282 5.863L80.7902 4.732V16.328C80.7902 16.666 80.8466 16.913 80.9592 17.069C81.0806 17.2163 81.2756 17.342 81.5442 17.446L82.0382 17.589C82.5496 17.823 82.8052 18.161 82.8052 18.603ZM100.221 8.255V16.757C100.221 17.1037 100.26 17.3507 100.338 17.498C100.424 17.6367 100.546 17.7407 100.702 17.81L101.066 17.927C101.239 18.0223 101.369 18.135 101.456 18.265C101.551 18.3863 101.599 18.5423 101.599 18.733C101.599 18.9757 101.525 19.1663 101.378 19.305C101.23 19.435 101.022 19.5 100.754 19.5H96.2167C95.9481 19.5 95.7357 19.435 95.5797 19.305C95.4324 19.1663 95.3587 18.9757 95.3587 18.733C95.3587 18.5423 95.4064 18.3863 95.5017 18.265C95.5971 18.135 95.7314 18.0223 95.9047 17.927L96.2687 17.81C96.4334 17.7407 96.5547 17.6367 96.6327 17.498C96.7107 17.3507 96.7497 17.1037 96.7497 16.757V11.011C96.7497 10.7077 96.7064 10.4953 96.6197 10.374C96.5417 10.2527 96.4204 10.166 96.2557 10.114L95.6967 10.049C95.5321 9.971 95.4021 9.88 95.3067 9.776C95.2201 9.66333 95.1767 9.52467 95.1767 9.36C95.1767 9.16933 95.2331 9.00467 95.3457 8.866C95.4671 8.72733 95.6664 8.61033 95.9437 8.515L98.0107 7.748C98.3401 7.618 98.6087 7.527 98.8167 7.475C99.0334 7.41433 99.2371 7.384 99.4277 7.384C99.6791 7.384 99.8741 7.46633 100.013 7.631C100.151 7.787 100.221 7.995 100.221 8.255ZM98.2447 5.525C97.5774 5.525 97.0401 5.34733 96.6327 4.992C96.2341 4.628 96.0347 4.15133 96.0347 3.562C96.0347 2.97267 96.2341 2.50033 96.6327 2.145C97.0401 1.78967 97.5774 1.612 98.2447 1.612C98.9207 1.612 99.4581 1.78967 99.8567 2.145C100.264 2.50033 100.468 2.97267 100.468 3.562C100.468 4.15133 100.264 4.628 99.8567 4.992C99.4581 5.34733 98.9207 5.525 98.2447 5.525ZM112.963 10.803C112.963 11.3317 112.798 11.7607 112.469 12.09C112.139 12.4107 111.706 12.571 111.169 12.571C110.623 12.571 110.211 12.4237 109.934 12.129C109.665 11.8257 109.531 11.427 109.531 10.933V10.569C109.531 10.1183 109.37 9.75867 109.05 9.49C108.729 9.22133 108.283 9.087 107.711 9.087C107.191 9.087 106.723 9.23 106.307 9.516C105.891 9.802 105.561 10.2137 105.319 10.751C105.085 11.2797 104.968 11.9167 104.968 12.662C104.968 13.6327 105.141 14.456 105.488 15.132C105.834 15.7993 106.302 16.3063 106.892 16.653C107.481 16.991 108.148 17.16 108.894 17.16C109.656 17.16 110.276 17.017 110.753 16.731C111.238 16.4363 111.628 16.0723 111.923 15.639C112.087 15.483 112.217 15.3747 112.313 15.314C112.417 15.2533 112.521 15.223 112.625 15.223C112.763 15.2317 112.872 15.288 112.95 15.392C113.036 15.496 113.075 15.6563 113.067 15.873C113.041 16.5577 112.807 17.199 112.365 17.797C111.931 18.395 111.329 18.8803 110.558 19.253C109.795 19.617 108.902 19.799 107.88 19.799C106.701 19.799 105.657 19.5477 104.747 19.045C103.845 18.5337 103.135 17.823 102.615 16.913C102.103 16.003 101.848 14.9457 101.848 13.741C101.848 12.519 102.103 11.427 102.615 10.465C103.135 9.49433 103.863 8.72733 104.799 8.164C105.743 7.60067 106.848 7.319 108.114 7.319C109.119 7.319 109.981 7.47933 110.701 7.8C111.42 8.12067 111.975 8.54533 112.365 9.074C112.763 9.60267 112.963 10.179 112.963 10.803ZM119.903 7.319C121.168 7.319 122.277 7.58767 123.231 8.125C124.184 8.65367 124.925 9.39033 125.454 10.335C125.991 11.271 126.26 12.3543 126.26 13.585C126.26 14.755 125.987 15.808 125.441 16.744C124.895 17.68 124.132 18.421 123.153 18.967C122.182 19.513 121.06 19.786 119.786 19.786C118.52 19.786 117.411 19.5217 116.458 18.993C115.504 18.4557 114.759 17.7147 114.222 16.77C113.693 15.8253 113.429 14.7333 113.429 13.494C113.429 12.3327 113.702 11.2883 114.248 10.361C114.794 9.425 115.552 8.684 116.523 8.138C117.493 7.592 118.62 7.319 119.903 7.319ZM120.865 17.914C121.376 17.8013 121.788 17.5283 122.1 17.095C122.412 16.6617 122.611 16.0983 122.698 15.405C122.784 14.703 122.728 13.9057 122.529 13.013C122.329 12.0597 122.039 11.2797 121.658 10.673C121.285 10.0663 120.856 9.63733 120.371 9.386C119.894 9.13467 119.391 9.06533 118.863 9.178C118.36 9.282 117.944 9.55067 117.615 9.984C117.294 10.4087 117.09 10.9677 117.004 11.661C116.917 12.3543 116.973 13.1603 117.173 14.079C117.381 15.0323 117.671 15.8123 118.044 16.419C118.425 17.017 118.858 17.4417 119.344 17.693C119.829 17.9443 120.336 18.018 120.865 17.914ZM131.65 1.066V16.757C131.65 17.1037 131.689 17.3507 131.767 17.498C131.853 17.6367 131.975 17.7407 132.131 17.81L132.495 17.927C132.668 18.031 132.802 18.1437 132.898 18.265C132.993 18.3863 133.041 18.5423 133.041 18.733C133.041 18.9757 132.963 19.1663 132.807 19.305C132.659 19.435 132.451 19.5 132.183 19.5H127.646C127.386 19.5 127.178 19.435 127.022 19.305C126.874 19.1663 126.801 18.9757 126.801 18.733C126.801 18.5423 126.844 18.3863 126.931 18.265C127.026 18.1437 127.16 18.031 127.334 17.927L127.698 17.81C127.862 17.7407 127.984 17.6367 128.062 17.498C128.14 17.3507 128.179 17.1037 128.179 16.757V3.809C128.179 3.51433 128.14 3.30633 128.062 3.185C127.984 3.055 127.862 2.964 127.698 2.912L127.139 2.86C126.965 2.782 126.831 2.691 126.736 2.587C126.649 2.47433 126.606 2.33133 126.606 2.158C126.606 1.96733 126.666 1.807 126.788 1.677C126.909 1.53833 127.104 1.417 127.373 1.313L129.453 0.545999C129.773 0.424665 130.038 0.333665 130.246 0.272999C130.462 0.212332 130.666 0.181999 130.857 0.181999C131.108 0.181999 131.303 0.264332 131.442 0.428998C131.58 0.584998 131.65 0.797332 131.65 1.066ZM144.665 11.869C144.665 12.441 144.501 12.883 144.171 13.195C143.851 13.4983 143.391 13.65 142.793 13.65H135.461V12.376H140.349C140.878 12.376 141.142 12.1247 141.142 11.622C141.142 10.8247 140.943 10.205 140.544 9.763C140.146 9.31233 139.639 9.087 139.023 9.087C138.521 9.087 138.074 9.22567 137.684 9.503C137.294 9.78033 136.982 10.1833 136.748 10.712C136.523 11.2407 136.41 11.8863 136.41 12.649C136.41 14.1657 136.77 15.3183 137.489 16.107C138.217 16.887 139.166 17.277 140.336 17.277C141.056 17.277 141.688 17.121 142.234 16.809C142.789 16.4883 143.218 16.1027 143.521 15.652C143.669 15.496 143.794 15.3877 143.898 15.327C144.002 15.2577 144.106 15.2273 144.21 15.236C144.34 15.236 144.449 15.288 144.535 15.392C144.631 15.4873 144.674 15.6433 144.665 15.86C144.639 16.536 144.405 17.173 143.963 17.771C143.521 18.369 142.91 18.8587 142.13 19.24C141.35 19.6127 140.432 19.799 139.374 19.799C138.135 19.799 137.056 19.5433 136.137 19.032C135.219 18.512 134.508 17.7927 134.005 16.874C133.511 15.9553 133.264 14.8937 133.264 13.689C133.264 12.4757 133.507 11.388 133.992 10.426C134.486 9.464 135.201 8.70567 136.137 8.151C137.073 7.59633 138.196 7.319 139.504 7.319C140.544 7.319 141.45 7.51833 142.221 7.917C142.993 8.31567 143.591 8.86167 144.015 9.555C144.449 10.2397 144.665 11.011 144.665 11.869Z" fill="#351E15"/>
</svg>
